<!-- Copyright © 2015 MODULUS Sp. z o. o. / FUTURAMO™ --><svg xmlns="http://www.w3.org/2000/svg" x="0px" y="0px" width="32px" height="32px" viewBox="0 0 32 32"><path fill="#35393E" d="M14,24v6H7c-0.552,0-1,0.448-1,1s0.448,1,1,1h18c0.552,0,1-0.448,1-1s-0.448-1-1-1h-7v-6h10 c2.209,0,4-1.791,4-4V4c0-2.209-1.791-4-4-4H4C1.791,0,0,1.791,0,4v16c0,2.209,1.791,4,4,4H14z M2,20V4c0-1.103,0.897-2,2-2h24 c1.103,0,2,0.897,2,2v16c0,1.103-0.897,2-2,2H4C2.897,22,2,21.103,2,20z M25.5,6C25.776,6,26,6.224,26,6.5v4.776 c0,0.121-0.073,0.231-0.185,0.277c-0.112,0.046-0.241,0.021-0.327-0.065l-1.603-1.603l-5.459,6.141 c-0.179,0.202-0.486,0.225-0.694,0.052l-5.544-4.62l-4.083,5.716c-0.16,0.225-0.473,0.277-0.697,0.116L6.593,16.71 c-0.108-0.077-0.181-0.194-0.203-0.325C6.369,16.254,6.4,16.12,6.477,16.012l5.023-7.032c0.081-0.113,0.205-0.188,0.343-0.205 c0.138-0.018,0.277,0.023,0.384,0.112l5.67,4.725l4.572-5.144l-1.956-1.956c-0.086-0.086-0.111-0.215-0.065-0.327S20.603,6,20.724,6 H25.5z"></path></svg>