<!-- Copyright © 2015 MODULUS Sp. z o. o. / FUTURAMO™ --><svg xmlns="http://www.w3.org/2000/svg" x="0px" y="0px" width="32px" height="32px" viewBox="0 0 32 32"><path fill="#35393E" d="M26.455,30.614l4.158-4.158l1.184,4.736c0.043,0.17-0.007,0.351-0.132,0.475 c-0.124,0.124-0.304,0.174-0.475,0.132L26.455,30.614z M17.866,13.707c-0.391-0.391-1.024-0.391-1.414,0l-2.744,2.744 c-0.391,0.391-0.391,1.024,0,1.414l1.659,1.659l4.158-4.158L17.866,13.707z M16.752,19.525l-0.693,0.693l9.703,9.703l0.693-0.693 L16.752,19.525z M20.218,16.059l-0.693,0.693l9.703,9.703l0.693-0.693L20.218,16.059z M18.832,17.446l-1.386,1.386l9.703,9.703 l1.386-1.386L18.832,17.446z M19.5,30c0.276,0,0.5,0.224,0.5,0.5v1c0,0.276-0.224,0.5-0.5,0.5H8c-2.209,0-4-1.791-4-4H3 c-0.552,0-1-0.448-1-1v-4c0-0.552,0.448-1,1-1h1v-2H3c-0.552,0-1-0.448-1-1v-4c0-0.552,0.448-1,1-1h1v-2H3c-0.552,0-1-0.448-1-1V7 c0-0.552,0.448-1,1-1h1c0-2.209,1.791-4,4-4h18c2.209,0,4,1.791,4,4v11.5c0,0.276-0.224,0.5-0.5,0.5h-1c-0.276,0-0.5-0.224-0.5-0.5 V6c0-1.103-0.897-2-2-2H8C6.897,4,6,4.897,6,6h1c0.552,0,1,0.448,1,1v4c0,0.552-0.448,1-1,1H6v2h1c0.552,0,1,0.448,1,1v4 c0,0.552-0.448,1-1,1H6v2h1c0.552,0,1,0.448,1,1v4c0,0.552-0.448,1-1,1H6c0,1.103,0.897,2,2,2H19.5z M4,10h2V8H4V10z M4,18h2v-2H4 V18z M6,26v-2H4v2H6z"></path></svg>