<!-- Copyright © 2015 MODULUS Sp. z o. o. / FUTURAMO™ --><svg xmlns="http://www.w3.org/2000/svg" x="0px" y="0px" width="32px" height="32px" viewBox="0 0 32 32"><path fill="#35393E" d="M24,0l8,8v20c0,2.211-1.787,4-4,4H10c-2.211,0-4-1.787-4-4v-2h2v2c0,1.103,0.896,2,2,2h18 c1.103,0,2-0.897,2-2V10h-6c-1.106,0-2-0.895-2-2V2H10C8.896,2,8,2.896,8,4v8H6V4c0-2.213,1.789-4,4-4H24z M22,16v6 c0,1.105-0.895,2-2,2h-4V14h4C21.105,14,22,14.895,22,16z M20,22v-6h-2v6H20z M12,18h-2v-2h2h2c0-1.105-0.895-2-2-2h-2 c-1.105,0-2,0.895-2,2v2c0,1.105,0.895,2,2,2h2v2h-2H8c0,1.105,0.895,2,2,2h2c1.105,0,2-0.895,2-2v-2C14,18.895,13.105,18,12,18z  M6,16v2c0,1.105-0.895,2-2,2H2v4H0V14h4C5.105,14,6,14.895,6,16z M4,18v-2H2v2H4z"></path></svg>