<svg width="75" height="76" viewBox="0 0 75 76" xmlns="http://www.w3.org/2000/svg"><title>instagram-glyph-1 2</title><path d="M25.002 37.5c0-6.903 5.595-12.501 12.498-12.501S50.001 30.597 50.001 37.5 44.403 50.001 37.5 50.001 25.002 44.403 25.002 37.5m-6.758 0c0 10.635 8.62 19.256 19.256 19.256 10.635 0 19.256-8.62 19.256-19.256 0-10.635-8.62-19.256-19.256-19.256-10.635 0-19.256 8.62-19.256 19.256m34.774-20.02a4.502 4.502 0 0 0 9.002 0 4.5 4.5 0 0 0-4.5-4.497 4.5 4.5 0 0 0-4.502 4.498m-30.67 50.543c-3.656-.167-5.643-.775-6.963-1.29-1.751-.682-3-1.494-4.314-2.805-1.311-1.312-2.126-2.56-2.805-4.31-.515-1.321-1.123-3.308-1.29-6.965-.182-3.952-.218-5.14-.218-15.154s.04-11.199.218-15.154c.167-3.657.778-5.64 1.29-6.964.682-1.751 1.494-3 2.805-4.314 1.312-1.311 2.56-2.126 4.314-2.805 1.32-.515 3.307-1.123 6.964-1.29 3.952-.182 5.14-.218 15.151-.218 10.014 0 11.199.04 15.154.218 3.657.167 5.64.778 6.964 1.29 1.751.679 3 1.494 4.314 2.805 1.311 1.312 2.123 2.563 2.805 4.314.515 1.32 1.123 3.307 1.29 6.964.182 3.955.218 5.14.218 15.154 0 10.011-.036 11.199-.218 15.154-.167 3.657-.778 5.644-1.29 6.964-.682 1.751-1.494 3-2.805 4.31-1.312 1.312-2.563 2.124-4.314 2.806-1.32.515-3.307 1.123-6.964 1.29-3.952.182-5.14.218-15.154.218-10.011 0-11.199-.036-15.151-.218M22.039.227c-3.992.182-6.718.815-9.102 1.742-2.465.957-4.556 2.241-6.643 4.325-2.084 2.084-3.368 4.174-4.325 6.643-.927 2.384-1.56 5.11-1.742 9.103C.042 26.038 0 27.316 0 37.5c0 10.184.042 11.462.227 15.46.182 3.993.815 6.719 1.742 9.103.957 2.465 2.238 4.559 4.325 6.643 2.084 2.084 4.174 3.365 6.643 4.325 2.387.927 5.11 1.56 9.103 1.742 4.001.182 5.276.227 15.46.227 10.187 0 11.462-.042 15.46-.227 3.993-.182 6.719-.815 9.103-1.742 2.465-.96 4.556-2.241 6.643-4.325 2.084-2.084 3.365-4.178 4.325-6.643.927-2.384 1.563-5.11 1.742-9.103.182-4.001.224-5.276.224-15.46 0-10.184-.042-11.462-.224-15.46-.182-3.993-.815-6.719-1.742-9.103-.96-2.465-2.241-4.556-4.325-6.643-2.084-2.084-4.178-3.368-6.64-4.325-2.387-.927-5.113-1.563-9.103-1.742C48.965.045 47.687 0 37.503 0 27.316 0 26.041.042 22.04.227" fill="#FFF" fill-rule="evenodd"/></svg>