<svg width="76" height="72" viewBox="0 0 76 72" xmlns="http://www.w3.org/2000/svg"><title>linkedin</title><path d="M0 8.325c0-2.413.845-4.404 2.534-5.972C4.223.784 6.419 0 9.122 0c2.654 0 4.802.772 6.443 2.317 1.689 1.592 2.533 3.668 2.533 6.225 0 2.317-.82 4.248-2.46 5.792-1.69 1.593-3.91 2.389-6.661 2.389h-.073c-2.654 0-4.802-.796-6.443-2.389C.821 12.741 0 10.738 0 8.325zM.941 71.67V23.31h16.072v48.36H.94zm24.976 0h16.071V44.667c0-1.69.194-2.992.58-3.91a10.499 10.499 0 0 1 3.076-4.162c1.376-1.134 3.101-1.701 5.177-1.701 5.405 0 8.108 3.644 8.108 10.931V71.67H75V43.943c0-7.143-1.689-12.56-5.067-16.252-3.379-3.692-7.843-5.538-13.393-5.538-6.226 0-11.077 2.678-14.552 8.035v.145h-.072l.072-.145v-6.877H25.917c.097 1.544.145 6.346.145 14.406s-.048 19.378-.145 33.953z" fill="#FFF" fill-rule="evenodd"/></svg>