<!-- Copyright © 2015 MODULUS Sp. z o. o. / FUTURAMO™ --><svg xmlns="http://www.w3.org/2000/svg" x="0px" y="0px" width="32px" height="32px" viewBox="0 0 32 32"><path fill="#35393E" d="M28.9,14.749C27.98,14.241,26.985,14,26.004,14c-2.114,0-4.163,1.119-5.258,3.1 c-1.602,2.901-0.549,6.551,2.351,8.153c0.92,0.508,1.914,0.749,2.896,0.749c2.114,0,4.163-1.119,5.258-3.1 C32.853,20.001,31.8,16.351,28.9,14.749z M29.5,21.935c-0.704,1.275-2.048,2.067-3.507,2.067c-0.67,0-1.337-0.173-1.929-0.5 c-0.935-0.517-1.613-1.366-1.909-2.393c-0.296-1.027-0.175-2.107,0.342-3.042C23.202,16.792,24.545,16,26.004,16 c0.67,0,1.337,0.173,1.929,0.5C29.864,17.566,30.567,20.004,29.5,21.935z M24,26.748l-2.659,4.814 c-0.134,0.242-0.438,0.329-0.679,0.196l-1.751-0.967c-0.242-0.133-0.329-0.438-0.196-0.679l2.659-4.814L24,26.748z M22.001,8 c0-4.418-3.582-8-8-8s-8,3.582-8,8c0,2.826,1.473,5.297,3.686,6.72c-3.223,1.055-6.043,3.235-7.79,6.214 c-1.492,2.544-1.825,5.22-1.896,7.989c-0.021,0.809,0.287,1.592,0.852,2.172C1.419,31.674,2.195,32,3.005,32H16v-2H3.005 c-0.27,0-0.533-0.11-0.721-0.303C2.097,29.505,1.994,29.242,2,28.974c0.06-2.316,0.297-4.77,1.622-7.029 C5.772,18.278,9.748,16,13.997,16c1.596,0,3.162,0.335,4.61,0.944c0.257-0.621,0.595-1.198,0.992-1.729 c-0.421-0.184-0.849-0.35-1.287-0.494C20.527,13.299,22.001,10.827,22.001,8z M14.001,14c-3.308,0-6-2.692-6-6c0-3.308,2.692-6,6-6 c3.309,0,6,2.692,6,6C20.001,11.308,17.31,14,14.001,14z"></path></svg>