<svg width="75" height="42" viewBox="0 0 75 42" xmlns="http://www.w3.org/2000/svg"><title>soundcloud</title><path d="M0 34.189c0 .93.337 1.634 1.012 2.11.674.477 1.395.646 2.163.506.72-.14 1.227-.395 1.518-.767.29-.372.436-.989.436-1.85V24.072c0-.72-.25-1.331-.75-1.831s-1.111-.75-1.832-.75c-.698 0-1.297.25-1.797.75S0 23.35 0 24.07V34.19zm8.024 4.326c0 .674.239 1.18.716 1.518.476.337 1.087.505 1.831.505.768 0 1.39-.168 1.867-.505.476-.338.715-.844.715-1.518V14.93c0-.697-.25-1.296-.75-1.796s-1.11-.75-1.832-.75c-.698 0-1.297.25-1.797.75s-.75 1.099-.75 1.796v23.585zm7.99 1.116c0 .675.244 1.18.732 1.518.489.337 1.117.506 1.884.506.745 0 1.355-.169 1.832-.506.477-.337.715-.843.715-1.518V18.105a2.55 2.55 0 0 0-.75-1.849c-.5-.511-1.099-.767-1.797-.767a2.52 2.52 0 0 0-1.849.767 2.52 2.52 0 0 0-.767 1.85V39.63zm8.024.105c0 1.28.86 1.919 2.582 1.919 1.72 0 2.581-.64 2.581-1.919V4.848c0-1.954-.593-3.059-1.779-3.315-.767-.186-1.523.035-2.268.663-.744.628-1.116 1.512-1.116 2.652v34.888zm8.164 1.012V2.789c0-1.21.36-1.93 1.081-2.163a19.923 19.923 0 0 1 4.64-.558c3.56 0 6.874.837 9.944 2.512 3.07 1.675 5.553 3.96 7.448 6.856 1.896 2.895 2.995 6.088 3.297 9.576a11.445 11.445 0 0 1 4.536-.907c3.256 0 6.041 1.152 8.355 3.454 2.315 2.303 3.472 5.07 3.472 8.304 0 3.256-1.157 6.035-3.472 8.338-2.314 2.303-5.087 3.454-8.32 3.454L32.83 41.62a.817.817 0 0 1-.471-.384c-.105-.186-.157-.349-.157-.488z" fill="#FFF" fill-rule="evenodd"/></svg>