<svg width="75" height="61" viewBox="0 0 75 61" xmlns="http://www.w3.org/2000/svg"><title>Shape</title><path d="M50.11.014V0h3.517l1.284.257c.857.167 1.635.385 2.333.656.7.27 1.376.586 2.03.947.653.36 1.246.728 1.778 1.102.527.37 1 .762 1.42 1.177.415.419 1.062.527 1.94.324.88-.203 1.827-.484 2.84-.845a38.156 38.156 0 0 0 3.01-1.217c.992-.451 1.596-.737 1.813-.86.212-.125.324-.193.338-.202l.013-.02.068-.034.067-.034.068-.034.068-.034.013-.02.02-.013.02-.014.014-.02.068-.02.068-.014-.014.101-.02.102-.034.101-.034.102-.034.067-.033.068-.034.101a2.352 2.352 0 0 0-.068.27c-.022.114-.237.564-.642 1.353-.406.79-.913 1.59-1.522 2.401-.609.812-1.154 1.425-1.636 1.84-.487.419-.81.712-.967.879-.158.17-.35.329-.575.473l-.338.223-.068.034-.068.034-.013.02-.02.014-.02.013-.014.02-.068.034-.068.034-.013.02-.02.014-.02.013-.014.02-.014.021-.02.013-.02.014-.014.02h.338l1.894-.405a33.885 33.885 0 0 0 3.618-.981l1.826-.609.203-.067.101-.034.068-.034.067-.034.068-.034.067-.033.136-.02.135-.014v.135l-.034.014-.034.02-.013.02-.02.014-.02.013-.014.02-.014.02-.02.014-.02.014-.014.02-.013.02-.02.014-.035.068-.033.067-.02.014-.86 1.15c-.563.757-.867 1.14-.912 1.149-.045.014-.109.081-.19.203-.076.126-.554.629-1.433 1.508-.88.879-1.74 1.661-2.584 2.346-.847.69-1.275 1.538-1.284 2.543-.014 1.001-.066 2.133-.156 3.395a42.98 42.98 0 0 1-.507 4.091c-.248 1.465-.631 3.122-1.15 4.97a45.19 45.19 0 0 1-1.893 5.41c-.744 1.759-1.522 3.337-2.333 4.734-.812 1.398-1.556 2.581-2.232 3.55a45.663 45.663 0 0 1-2.063 2.74c-.698.856-1.582 1.82-2.65 2.894a268.665 268.665 0 0 0-1.759 1.758c-.103.1-.545.469-1.325 1.11-.776.644-1.61 1.289-2.502 1.933a28.942 28.942 0 0 1-2.448 1.603c-.744.428-1.641.917-2.692 1.467a32.021 32.021 0 0 1-3.395 1.542 51.339 51.339 0 0 1-3.854 1.319c-1.353.406-2.66.721-3.922.947a55.759 55.759 0 0 1-4.295.575l-2.4.236v.034h-4.396v-.034l-.575-.034a30.827 30.827 0 0 1-.946-.067c-.248-.023-1.184-.147-2.807-.372-1.623-.226-2.896-.451-3.82-.676-.925-.226-2.3-.654-4.126-1.285-1.826-.631-3.388-1.27-4.686-1.914a187.248 187.248 0 0 1-2.435-1.217c-.324-.167-.69-.375-1.095-.622l-.609-.372-.013-.02-.02-.014-.021-.014-.014-.02-.067-.034-.068-.034-.013-.02-.02-.013-.02-.014-.014-.02-.014-.02-.02-.014H0v-.135l.068.013.067.02.305.034c.202.023.755.057 1.656.102.902.045 1.86.045 2.874 0a30.239 30.239 0 0 0 3.111-.305c1.06-.157 2.31-.428 3.753-.811a27.73 27.73 0 0 0 3.977-1.366c1.203-.532 2.06-.929 2.57-1.19.504-.257 1.275-.735 2.312-1.434l1.556-1.048.013-.02.02-.014.02-.013.014-.02.014-.021.02-.014.02-.013.014-.02.067-.02.068-.014.014-.068.02-.067.02-.014.014-.02-.541-.034c-.36-.023-.71-.045-1.048-.068-.339-.022-.868-.124-1.59-.304-.721-.18-1.499-.45-2.333-.812a17.986 17.986 0 0 1-2.434-1.284c-.79-.496-1.36-.909-1.711-1.238a29.67 29.67 0 0 1-1.353-1.38c-.55-.599-1.028-1.215-1.433-1.846a16.587 16.587 0 0 1-1.163-2.184l-.562-1.23-.034-.102-.033-.102-.02-.067-.014-.068.101.014.102.02.744.101c.496.068 1.273.09 2.333.068 1.06-.022 1.792-.068 2.197-.135.406-.068.654-.113.744-.135l.136-.034.169-.034.169-.034.013-.02.02-.014.02-.013.014-.02-.135-.034-.135-.034-.135-.034-.136-.034-.135-.034c-.09-.022-.248-.067-.473-.135-.226-.067-.834-.315-1.826-.744-.992-.428-1.78-.845-2.367-1.25a16.345 16.345 0 0 1-1.677-1.333c-.528-.487-1.107-1.114-1.738-1.88a13.527 13.527 0 0 1-1.69-2.671 16.245 16.245 0 0 1-1.117-2.908c-.247-.924-.41-1.86-.486-2.806l-.122-1.42.067.013.068.02.068.034.067.034.068.034.068.034 1.048.473c.699.315 1.566.586 2.603.811 1.037.226 1.657.35 1.86.372l.304.034h.609l-.013-.02-.02-.014-.021-.013-.014-.02-.013-.02-.02-.014-.02-.014-.014-.02-.068-.034-.068-.034-.013-.02-.02-.014-.02-.013-.014-.02-.068-.034-.067-.034-.014-.02a84.31 84.31 0 0 1-.581-.433 8.868 8.868 0 0 1-1.164-1.102c-.405-.451-.811-.925-1.217-1.42a10.966 10.966 0 0 1-1.082-1.59c-.315-.563-.65-1.28-1-2.15a15.265 15.265 0 0 1-.792-2.617c-.18-.88-.282-1.747-.304-2.604-.023-.856 0-1.589.067-2.198.068-.608.203-1.296.406-2.062.203-.767.496-1.578.88-2.435l.574-1.285.034-.1.034-.102.02-.014.013-.02.014-.02.02-.014.02.014.014.02.014.02.02.014.02.013.014.02.013.02.02.014.034.068.034.067.02.014.014.02.913 1.015c.609.676 1.33 1.431 2.164 2.265.834.834 1.296 1.267 1.386 1.299.09.036.203.14.338.31.136.167.586.566 1.353 1.198.766.63 1.77 1.363 3.01 2.197a48.67 48.67 0 0 0 4.124 2.469 40.25 40.25 0 0 0 4.87 2.197c1.735.654 2.952 1.082 3.651 1.285.699.203 1.894.462 3.584.778 1.69.316 2.964.519 3.82.609.858.09 1.444.142 1.76.155l.473.014-.014-.102-.02-.101-.136-.845c-.09-.564-.135-1.353-.135-2.367 0-1.015.08-1.95.237-2.807.158-.856.394-1.724.71-2.603.316-.88.624-1.585.926-2.117.307-.527.708-1.13 1.204-1.806.496-.676 1.139-1.375 1.927-2.096A14.222 14.222 0 0 1 44.26 2.03c1.015-.564 1.95-.992 2.807-1.285.857-.293 1.578-.485 2.164-.575.586-.09.879-.142.879-.155z" fill="#FFF" fill-rule="evenodd"/></svg>